<?xml version="1.0" encoding="UTF-8" standalone="no"?>
<svg
   xmlns:dc="http://purl.org/dc/elements/1.1/"
   xmlns:cc="http://creativecommons.org/ns#"
   xmlns:rdf="http://www.w3.org/1999/02/22-rdf-syntax-ns#"
   xmlns:svg="http://www.w3.org/2000/svg"
   xmlns="http://www.w3.org/2000/svg"
   xmlns:sodipodi="http://sodipodi.sourceforge.net/DTD/sodipodi-0.dtd"
   xmlns:inkscape="http://www.inkscape.org/namespaces/inkscape"
   version="1.1"
   x="0px"
   y="0px"
   viewBox="0 0 100 100"
   enable-background="new 0 0 100 100"
   xml:space="preserve"
   id="svg3589"
   inkscape:version="0.91 r13725"
   sodipodi:docname="evan-shuster-ca_swap.svg"
   width="100"
   height="100"><metadata
     id="metadata3607"><rdf:RDF><cc:Work
         rdf:about=""><dc:format>image/svg+xml</dc:format><dc:type
           rdf:resource="http://purl.org/dc/dcmitype/StillImage" /><dc:title></dc:title></cc:Work></rdf:RDF></metadata><defs
     id="defs3605" /><sodipodi:namedview
     pagecolor="#ffffff"
     bordercolor="#666666"
     borderopacity="1"
     objecttolerance="10"
     gridtolerance="10"
     guidetolerance="10"
     inkscape:pageopacity="0"
     inkscape:pageshadow="2"
     inkscape:window-width="1836"
     inkscape:window-height="1137"
     id="namedview3603"
     showgrid="false"
     inkscape:zoom="2.5738687"
     inkscape:cx="-6.9150513"
     inkscape:cy="52.356397"
     inkscape:window-x="0"
     inkscape:window-y="0"
     inkscape:window-maximized="0"
     inkscape:current-layer="svg3589" /><rect
     x="8.0499992"
     y="10.049999"
     width="35"
     height="35"
     id="rect3591" /><rect
     x="56.950001"
     y="54.950001"
     width="35"
     height="35"
     id="rect3593" /><path
     d="m 33.55,61.65 6.7,0 -10.6,-10.5 -10.6,10.5 6.7,0 c 1,12.1 11.2,21.6 23.5,21.6 l 0,-7.8 c -8,0.1 -14.7,-6 -15.7,-13.8 z"
     id="path3595"
     inkscape:connector-curvature="0" /><path
     d="m 66.25,39.15 -6.6,0 10.6,10.6 10.6,-10.6 -6.7,0 c -1,-12.1 -11.2,-21.6 -23.6,-21.6 l 0,7.8 c 8,0 14.7,6 15.7,13.8 z"
     id="path3597"
     inkscape:connector-curvature="0" /></svg>